<?xml version="1.0" encoding="UTF-8"?>
<svg width="2422px" height="1824px" viewBox="0 0 2422 1824" version="1.1" xmlns="http://www.w3.org/2000/svg" xmlns:xlink="http://www.w3.org/1999/xlink">
    <!-- Generator: Sketch 48.2 (47327) - http://www.bohemiancoding.com/sketch -->
    <title>Combined Shape</title>
    <desc>Created with Sketch.</desc>
    <defs>
        <linearGradient x1="50%" y1="0%" x2="50%" y2="81.0539136%" id="linearGradient-1">
            <stop stop-color="#CF4388" offset="0%"></stop>
            <stop stop-color="#4D8BB3" offset="100%"></stop>
        </linearGradient>
    </defs>
    <g id="Page-1" stroke="none" stroke-width="1" fill="none" fill-rule="evenodd">
        <path d="M39.0131571,1516.4475 C13.5517488,1418.72233 0,1316.19188 0,1210.49757 C0,1201.60674 0.0958907019,1192.7383 0.286694714,1183.89322 L2421.71336,1183.89323 C2421.90411,1192.7383 2422,1201.60674 2422,1210.49757 C2422,1318.32085 2409.92399,1419.98704 2385.6088,1516.4475 L39.0131571,1516.4475 Z M50.1490115,1556.35402 L2374.76485,1556.35402 C2347.38787,1650.21285 2308.04998,1739.12266 2256.59399,1824 L166.83034,1824 C117.71903,1740.66277 78.3080026,1650.9304 50.1490115,1556.35402 Z M1.79699053,1143.98667 C6.76862368,1052.21408 21.9666171,963.160077 46.2718704,877.943292 L2375.72813,877.943292 C2400.03338,963.160077 2415.23138,1052.21408 2420.20301,1143.98667 L1.79698827,1143.98671 Z M58.4073456,838.036779 C82.4353729,763.687929 113.463205,692.4843 150.714371,625.20204 L2271.28563,625.202041 C2308.53679,692.4843 2339.56463,763.687929 2363.59265,838.036779 L58.4073456,838.036779 Z M173.81408,585.295527 C214.43301,518.110533 261.400789,455.190887 313.886419,397.367247 L2108.11363,397.367304 C2160.59921,455.190887 2207.56699,518.110533 2248.18592,585.295527 L173.814081,585.295528 Z M351.788074,357.460765 C407.772367,301.120374 469.264874,250.255706 535.390744,205.741247 L1886.60926,205.741251 C1952.73513,250.255706 2014.22763,301.120374 2070.21193,357.460765 L351.788048,357.460791 Z M598.818978,165.834718 C778.442486,60.4340249 987.660752,0 1211,0 C1434.33925,0 1643.55751,60.4340249 1823.18102,165.834718 L598.818944,165.834737 Z" id="Combined-Shape" fill="url(#linearGradient-1)"></path>
    </g>
</svg>